<svg width="1000" height="700" xmlns="http://www.w3.org/2000/svg">
<!-- 555 Timer Circuit Schematic with Full Connections -->
<rect width="100%" height="100%" fill="white"/>
<text x="500" y="30" text-anchor="middle" font-size="20" font-weight="bold">555 Timer LED Blinker Circuit</text>
<rect x="350" y="280" width="100" height="140" fill="white" stroke="black" stroke-width="3"/>
<line x1="340" y1="310" x2="350" y2="310" stroke="black" stroke-width="2"/>
<text x="360" y="315" text-anchor="start" font-size="10">1</text>
<line x1="340" y1="340" x2="350" y2="340" stroke="black" stroke-width="2"/>
<text x="360" y="345" text-anchor="start" font-size="10">2</text>
<line x1="340" y1="370" x2="350" y2="370" stroke="black" stroke-width="2"/>
<text x="360" y="375" text-anchor="start" font-size="10">3</text>
<line x1="340" y1="400" x2="350" y2="400" stroke="black" stroke-width="2"/>
<text x="360" y="405" text-anchor="start" font-size="10">4</text>
<line x1="450" y1="310" x2="460" y2="310" stroke="black" stroke-width="2"/>
<text x="440" y="315" text-anchor="end" font-size="10">8</text>
<line x1="450" y1="340" x2="460" y2="340" stroke="black" stroke-width="2"/>
<text x="440" y="345" text-anchor="end" font-size="10">7</text>
<line x1="450" y1="370" x2="460" y2="370" stroke="black" stroke-width="2"/>
<text x="440" y="375" text-anchor="end" font-size="10">6</text>
<line x1="450" y1="400" x2="460" y2="400" stroke="black" stroke-width="2"/>
<text x="440" y="405" text-anchor="end" font-size="10">5</text>
<text x="400" y="340" text-anchor="middle" font-size="14" font-weight="bold">NE555</text>
<text x="400" y="360" text-anchor="middle" font-size="11">XU1</text>
<circle cx="150" cy="350" r="20" fill="white" stroke="brown" stroke-width="2"/>
<text x="142" y="345" text-anchor="middle" font-size="16" font-weight="bold" fill="brown">+</text>
<text x="142" y="362" text-anchor="middle" font-size="16" font-weight="bold" fill="brown">-</text>
<line x1="130" y1="350" x2="120" y2="350" stroke="brown" stroke-width="2"/>
<line x1="170" y1="350" x2="180" y2="350" stroke="brown" stroke-width="2"/>
<text x="150" y="320" text-anchor="middle" font-size="11" font-weight="bold" fill="brown">V1</text>
<text x="150" y="385" text-anchor="middle" font-size="10" fill="brown">9</text>
<polyline points="250,250 260,240 270,260 280,240 290,260 300,240 310,250" fill="none" stroke="green" stroke-width="2"/>
<line x1="240" y1="250" x2="250" y2="250" stroke="green" stroke-width="2"/>
<line x1="310" y1="250" x2="320" y2="250" stroke="green" stroke-width="2"/>
<text x="280" y="230" text-anchor="middle" font-size="11" font-weight="bold" fill="green">R1</text>
<text x="280" y="275" text-anchor="middle" font-size="10" fill="green">1k</text>
<polyline points="250,350 260,340 270,360 280,340 290,360 300,340 310,350" fill="none" stroke="green" stroke-width="2"/>
<line x1="240" y1="350" x2="250" y2="350" stroke="green" stroke-width="2"/>
<line x1="310" y1="350" x2="320" y2="350" stroke="green" stroke-width="2"/>
<text x="280" y="330" text-anchor="middle" font-size="11" font-weight="bold" fill="green">R2</text>
<text x="280" y="375" text-anchor="middle" font-size="10" fill="green">71.5k</text>
<polyline points="570,350 580,340 590,360 600,340 610,360 620,340 630,350" fill="none" stroke="green" stroke-width="2"/>
<line x1="560" y1="350" x2="570" y2="350" stroke="green" stroke-width="2"/>
<line x1="630" y1="350" x2="640" y2="350" stroke="green" stroke-width="2"/>
<text x="600" y="330" text-anchor="middle" font-size="11" font-weight="bold" fill="green">R3</text>
<text x="600" y="375" text-anchor="middle" font-size="10" fill="green">220</text>
<line x1="380" y1="485" x2="380" y2="515" stroke="blue" stroke-width="3"/>
<line x1="420" y1="485" x2="420" y2="515" stroke="blue" stroke-width="3"/>
<line x1="370" y1="500" x2="380" y2="500" stroke="blue" stroke-width="2"/>
<line x1="420" y1="500" x2="430" y2="500" stroke="blue" stroke-width="2"/>
<text x="400" y="475" text-anchor="middle" font-size="11" font-weight="bold" fill="blue">C1</text>
<text x="400" y="530" text-anchor="middle" font-size="10" fill="blue">10u</text>
<line x1="500" y1="235" x2="500" y2="265" stroke="blue" stroke-width="3"/>
<line x1="540" y1="235" x2="540" y2="265" stroke="blue" stroke-width="3"/>
<line x1="490" y1="250" x2="500" y2="250" stroke="blue" stroke-width="2"/>
<line x1="540" y1="250" x2="550" y2="250" stroke="blue" stroke-width="2"/>
<text x="520" y="225" text-anchor="middle" font-size="11" font-weight="bold" fill="blue">C2</text>
<text x="520" y="280" text-anchor="middle" font-size="10" fill="blue">10n</text>
<polygon points="680,335 680,365 710,350" fill="red" stroke="red" stroke-width="2"/>
<line x1="710" y1="335" x2="710" y2="365" stroke="red" stroke-width="3"/>
<line x1="670" y1="350" x2="680" y2="350" stroke="red" stroke-width="2"/>
<line x1="710" y1="350" x2="720" y2="350" stroke="red" stroke-width="2"/>
<text x="700" y="325" text-anchor="middle" font-size="11" font-weight="bold" fill="red">D1</text>
<text x="700" y="380" text-anchor="middle" font-size="10" fill="red">LED</text>
<polyline points="240,250 180,250 180,350 120,350" fill="none" stroke="red" stroke-width="3"/>
<circle cx="240" cy="250" r="3" fill="red"/>
<circle cx="120" cy="350" r="3" fill="red"/>
<polyline points="550,250 365,250 365,350 180,350" fill="none" stroke="blue" stroke-width="3"/>
<polyline points="180,350 455,350 455,350 730,350" fill="none" stroke="blue" stroke-width="3"/>
<polyline points="730,350 580,350 580,500 430,500" fill="none" stroke="blue" stroke-width="3"/>
<circle cx="550" cy="250" r="3" fill="blue"/>
<circle cx="180" cy="350" r="3" fill="blue"/>
<circle cx="730" cy="350" r="3" fill="blue"/>
<circle cx="430" cy="500" r="3" fill="blue"/>
<polyline points="320,250 320,300 240,300 240,350" fill="none" stroke="black" stroke-width="2"/>
<text x="280" y="295" text-anchor="middle" font-size="8" fill="blue" font-weight="bold">7</text>
<polyline points="240,350 345,350 345,370 450,370" fill="none" stroke="black" stroke-width="2"/>
<text x="345" y="355" text-anchor="middle" font-size="8" fill="blue" font-weight="bold">7</text>
<circle cx="320" cy="250" r="3" fill="black"/>
<circle cx="240" cy="350" r="3" fill="black"/>
<circle cx="450" cy="370" r="3" fill="black"/>
<polyline points="450,340 385,340 385,350 320,350" fill="none" stroke="black" stroke-width="2"/>
<text x="385" y="340" text-anchor="middle" font-size="8" fill="blue" font-weight="bold">6</text>
<polyline points="320,350 320,425 370,425 370,500" fill="none" stroke="black" stroke-width="2"/>
<text x="345" y="420" text-anchor="middle" font-size="8" fill="blue" font-weight="bold">6</text>
<circle cx="450" cy="340" r="3" fill="black"/>
<circle cx="320" cy="350" r="3" fill="black"/>
<circle cx="370" cy="500" r="3" fill="black"/>
<polyline points="490,250 490,280 450,280 450,310" fill="none" stroke="black" stroke-width="2"/>
<text x="470" y="275" text-anchor="middle" font-size="8" fill="blue" font-weight="bold">5</text>
<circle cx="490" cy="250" r="3" fill="black"/>
<circle cx="450" cy="310" r="3" fill="black"/>
<polyline points="560,350 455,350 455,370 350,370" fill="none" stroke="black" stroke-width="2"/>
<text x="455" y="355" text-anchor="middle" font-size="8" fill="blue" font-weight="bold">3</text>
<circle cx="560" cy="350" r="3" fill="black"/>
<circle cx="350" cy="370" r="3" fill="black"/>
<polyline points="640,350 655,350 655,350 670,350" fill="none" stroke="black" stroke-width="2"/>
<text x="655" y="345" text-anchor="middle" font-size="8" fill="blue" font-weight="bold">700</text>
<circle cx="640" cy="350" r="3" fill="black"/>
<circle cx="670" cy="350" r="3" fill="black"/>
<text x="500" y="650" text-anchor="middle" font-size="14" fill="blue">Frequency: 1 Hz | R1=1kΩ, R2=71.5kΩ, C1=10μF</text>
</svg>
